<svg width="106" height="43" viewBox="0 0 106 43" fill="none" xmlns="http://www.w3.org/2000/svg">
<path d="M38.692 17V4.4H44.596C46.108 4.4 47.26 4.7 48.052 5.3C48.844 5.888 49.24 6.68 49.24 7.676C49.24 8.348 49.084 8.924 48.772 9.404C48.46 9.872 48.04 10.238 47.512 10.502C46.996 10.754 46.432 10.88 45.82 10.88L46.144 10.232C46.852 10.232 47.488 10.364 48.052 10.628C48.616 10.88 49.06 11.252 49.384 11.744C49.72 12.236 49.888 12.848 49.888 13.58C49.888 14.66 49.474 15.5 48.646 16.1C47.818 16.7 46.588 17 44.956 17H38.692ZM41.032 15.164H44.812C45.688 15.164 46.36 15.02 46.828 14.732C47.296 14.444 47.53 13.982 47.53 13.346C47.53 12.722 47.296 12.266 46.828 11.978C46.36 11.678 45.688 11.528 44.812 11.528H40.852V9.71H44.344C45.16 9.71 45.784 9.566 46.216 9.278C46.66 8.99 46.882 8.558 46.882 7.982C46.882 7.394 46.66 6.956 46.216 6.668C45.784 6.38 45.16 6.236 44.344 6.236H41.032V15.164ZM58.2894 17.18C57.3054 17.18 56.3994 17.018 55.5714 16.694C54.7434 16.37 54.0234 15.92 53.4114 15.344C52.7994 14.756 52.3254 14.072 51.9894 13.292C51.6534 12.5 51.4854 11.636 51.4854 10.7C51.4854 9.764 51.6534 8.906 51.9894 8.126C52.3254 7.334 52.7994 6.65 53.4114 6.074C54.0234 5.486 54.7434 5.03 55.5714 4.706C56.3994 4.382 57.2994 4.22 58.2714 4.22C59.2554 4.22 60.1554 4.382 60.9714 4.706C61.7994 5.03 62.5194 5.486 63.1314 6.074C63.7434 6.65 64.2174 7.334 64.5534 8.126C64.8894 8.906 65.0574 9.764 65.0574 10.7C65.0574 11.636 64.8894 12.5 64.5534 13.292C64.2174 14.084 63.7434 14.768 63.1314 15.344C62.5194 15.92 61.7994 16.37 60.9714 16.694C60.1554 17.018 59.2614 17.18 58.2894 17.18ZM58.2714 15.128C58.9074 15.128 59.4954 15.02 60.0354 14.804C60.5754 14.588 61.0434 14.282 61.4394 13.886C61.8354 13.478 62.1414 13.01 62.3574 12.482C62.5854 11.942 62.6994 11.348 62.6994 10.7C62.6994 10.052 62.5854 9.464 62.3574 8.936C62.1414 8.396 61.8354 7.928 61.4394 7.532C61.0434 7.124 60.5754 6.812 60.0354 6.596C59.4954 6.38 58.9074 6.272 58.2714 6.272C57.6354 6.272 57.0474 6.38 56.5074 6.596C55.9794 6.812 55.5114 7.124 55.1034 7.532C54.7074 7.928 54.3954 8.396 54.1674 8.936C53.9514 9.464 53.8434 10.052 53.8434 10.7C53.8434 11.336 53.9514 11.924 54.1674 12.464C54.3954 13.004 54.7074 13.478 55.1034 13.886C55.4994 14.282 55.9674 14.588 56.5074 14.804C57.0474 15.02 57.6354 15.128 58.2714 15.128ZM73.4417 17.18C72.4577 17.18 71.5517 17.018 70.7237 16.694C69.8957 16.37 69.1757 15.92 68.5637 15.344C67.9517 14.756 67.4777 14.072 67.1417 13.292C66.8057 12.5 66.6377 11.636 66.6377 10.7C66.6377 9.764 66.8057 8.906 67.1417 8.126C67.4777 7.334 67.9517 6.65 68.5637 6.074C69.1757 5.486 69.8957 5.03 70.7237 4.706C71.5517 4.382 72.4517 4.22 73.4237 4.22C74.4077 4.22 75.3077 4.382 76.1237 4.706C76.9517 5.03 77.6717 5.486 78.2837 6.074C78.8957 6.65 79.3697 7.334 79.7057 8.126C80.0417 8.906 80.2097 9.764 80.2097 10.7C80.2097 11.636 80.0417 12.5 79.7057 13.292C79.3697 14.084 78.8957 14.768 78.2837 15.344C77.6717 15.92 76.9517 16.37 76.1237 16.694C75.3077 17.018 74.4137 17.18 73.4417 17.18ZM73.4237 15.128C74.0597 15.128 74.6477 15.02 75.1877 14.804C75.7277 14.588 76.1957 14.282 76.5917 13.886C76.9877 13.478 77.2937 13.01 77.5097 12.482C77.7377 11.942 77.8517 11.348 77.8517 10.7C77.8517 10.052 77.7377 9.464 77.5097 8.936C77.2937 8.396 76.9877 7.928 76.5917 7.532C76.1957 7.124 75.7277 6.812 75.1877 6.596C74.6477 6.38 74.0597 6.272 73.4237 6.272C72.7877 6.272 72.1997 6.38 71.6597 6.596C71.1317 6.812 70.6637 7.124 70.2557 7.532C69.8597 7.928 69.5477 8.396 69.3197 8.936C69.1037 9.464 68.9957 10.052 68.9957 10.7C68.9957 11.336 69.1037 11.924 69.3197 12.464C69.5477 13.004 69.8597 13.478 70.2557 13.886C70.6517 14.282 71.1197 14.588 71.6597 14.804C72.1997 15.02 72.7877 15.128 73.4237 15.128ZM84.778 14.03L84.652 11.258L91.258 4.4H93.886L88.396 10.232L87.1 11.654L84.778 14.03ZM82.69 17V4.4H85.03V17H82.69ZM91.474 17L86.65 11.258L88.198 9.548L94.21 17H91.474ZM99.4457 17.18C98.4617 17.18 97.5197 17.042 96.6197 16.766C95.7197 16.478 95.0057 16.112 94.4777 15.668L95.2877 13.85C95.7917 14.246 96.4157 14.576 97.1597 14.84C97.9037 15.104 98.6657 15.236 99.4457 15.236C100.106 15.236 100.64 15.164 101.048 15.02C101.456 14.876 101.756 14.684 101.948 14.444C102.14 14.192 102.236 13.91 102.236 13.598C102.236 13.214 102.098 12.908 101.822 12.68C101.546 12.44 101.186 12.254 100.742 12.122C100.31 11.978 99.8237 11.846 99.2837 11.726C98.7557 11.606 98.2217 11.468 97.6817 11.312C97.1537 11.144 96.6677 10.934 96.2237 10.682C95.7917 10.418 95.4377 10.07 95.1617 9.638C94.8857 9.206 94.7477 8.654 94.7477 7.982C94.7477 7.298 94.9277 6.674 95.2877 6.11C95.6597 5.534 96.2177 5.078 96.9617 4.742C97.7177 4.394 98.6717 4.22 99.8237 4.22C100.58 4.22 101.33 4.316 102.074 4.508C102.818 4.7 103.466 4.976 104.018 5.336L103.28 7.154C102.716 6.818 102.134 6.572 101.534 6.416C100.934 6.248 100.358 6.164 99.8057 6.164C99.1577 6.164 98.6297 6.242 98.2217 6.398C97.8257 6.554 97.5317 6.758 97.3397 7.01C97.1597 7.262 97.0697 7.55 97.0697 7.874C97.0697 8.258 97.2017 8.57 97.4657 8.81C97.7417 9.038 98.0957 9.218 98.5277 9.35C98.9717 9.482 99.4637 9.614 100.004 9.746C100.544 9.866 101.078 10.004 101.606 10.16C102.146 10.316 102.632 10.52 103.064 10.772C103.508 11.024 103.862 11.366 104.126 11.798C104.402 12.23 104.54 12.776 104.54 13.436C104.54 14.108 104.354 14.732 103.982 15.308C103.622 15.872 103.064 16.328 102.308 16.676C101.552 17.012 100.598 17.18 99.4457 17.18Z" fill="black"/>
<path d="M43.598 38.18C42.614 38.18 41.672 38.042 40.772 37.766C39.872 37.478 39.158 37.112 38.63 36.668L39.44 34.85C39.944 35.246 40.568 35.576 41.312 35.84C42.056 36.104 42.818 36.236 43.598 36.236C44.258 36.236 44.792 36.164 45.2 36.02C45.608 35.876 45.908 35.684 46.1 35.444C46.292 35.192 46.388 34.91 46.388 34.598C46.388 34.214 46.25 33.908 45.974 33.68C45.698 33.44 45.338 33.254 44.894 33.122C44.462 32.978 43.976 32.846 43.436 32.726C42.908 32.606 42.374 32.468 41.834 32.312C41.306 32.144 40.82 31.934 40.376 31.682C39.944 31.418 39.59 31.07 39.314 30.638C39.038 30.206 38.9 29.654 38.9 28.982C38.9 28.298 39.08 27.674 39.44 27.11C39.812 26.534 40.37 26.078 41.114 25.742C41.87 25.394 42.824 25.22 43.976 25.22C44.732 25.22 45.482 25.316 46.226 25.508C46.97 25.7 47.618 25.976 48.17 26.336L47.432 28.154C46.868 27.818 46.286 27.572 45.686 27.416C45.086 27.248 44.51 27.164 43.958 27.164C43.31 27.164 42.782 27.242 42.374 27.398C41.978 27.554 41.684 27.758 41.492 28.01C41.312 28.262 41.222 28.55 41.222 28.874C41.222 29.258 41.354 29.57 41.618 29.81C41.894 30.038 42.248 30.218 42.68 30.35C43.124 30.482 43.616 30.614 44.156 30.746C44.696 30.866 45.23 31.004 45.758 31.16C46.298 31.316 46.784 31.52 47.216 31.772C47.66 32.024 48.014 32.366 48.278 32.798C48.554 33.23 48.692 33.776 48.692 34.436C48.692 35.108 48.506 35.732 48.134 36.308C47.774 36.872 47.216 37.328 46.46 37.676C45.704 38.012 44.75 38.18 43.598 38.18ZM59.8683 25.4H62.2083V38H59.8683V25.4ZM53.3523 38H51.0123V25.4H53.3523V38ZM60.0483 32.6H53.1543V30.602H60.0483V32.6ZM67.7446 30.638H74.0086V32.564H67.7446V30.638ZM67.9246 36.038H75.0346V38H65.5846V25.4H74.7826V27.362H67.9246V36.038ZM77.6432 38V25.4H79.9832V36.02H86.5712V38H77.6432ZM90.5606 31.196H96.8426V33.176H90.5606V31.196ZM90.7586 38H88.4186V25.4H97.6166V27.362H90.7586V38Z" fill="black"/>
<path d="M28.3964 4.11053H34.044V38H28.3964V4.11053Z" fill="black"/>
<path d="M18.9812 4.11053H24.6288V38H18.9812V4.11053Z" fill="black"/>
<path d="M11.5909 3.99992L16.8979 5.93152L5.30703 37.7772L8.15883e-06 35.8456L11.5909 3.99992Z" fill="black"/>
</svg>
